<svg width="40" height="40" viewBox="0 0 40 40" fill="none" xmlns="http://www.w3.org/2000/svg">
<path d="M8.09845 30.5992L8.09822 30.5991C7.22549 29.9483 6.42488 28.9206 5.84209 27.759C5.25924 26.5973 4.91602 25.3451 4.91602 24.2666V11.8666C4.91602 9.50736 6.67085 6.96177 8.89051 6.13513L8.89147 6.13477L17.2077 3.01826C17.2078 3.01823 17.2079 3.0182 17.208 3.01817C17.9615 2.73661 18.9609 2.5874 19.9827 2.5874C21.0044 2.5874 22.0039 2.73661 22.7574 3.01817C22.7575 3.0182 22.7576 3.01823 22.7576 3.01826L31.0739 6.13477L31.0749 6.13513C33.2945 6.96177 35.0493 9.50736 35.0493 11.8666V24.2499C35.0493 25.3371 34.706 26.5892 34.1234 27.7483C33.5409 28.9073 32.7404 29.9313 31.8671 30.5824L31.8669 30.5826L24.7002 35.9326L24.7002 35.9325L24.694 35.9373C23.4113 36.9264 21.7234 37.4332 19.9993 37.4332C18.2767 37.4332 16.5845 36.927 15.2642 35.9486C15.2641 35.9484 15.2639 35.9483 15.2637 35.9482L8.09845 30.5992ZM17.7412 4.43145L17.7406 4.4317L9.42389 7.54837L9.42318 7.54863C8.5956 7.86019 7.85437 8.52248 7.32345 9.29061C6.79236 10.059 6.43268 10.9898 6.43268 11.8832V24.2666C6.43268 25.161 6.74327 26.1892 7.20027 27.101C7.65715 28.0126 8.29264 28.8722 9.0002 29.4005L9.00024 29.4006L16.1666 34.7503C17.2286 35.5445 18.6276 35.9249 20.0014 35.9249C21.3754 35.9249 22.7776 35.5445 23.8471 34.7516L23.8485 34.7506L31.0151 29.4006L31.016 29.3999C31.7308 28.8638 32.3662 28.005 32.8216 27.0943C33.2769 26.1837 33.5827 25.16 33.5827 24.2666V11.8666C33.5827 10.9804 33.2223 10.0538 32.6919 9.28645C32.1614 8.51889 31.4216 7.85396 30.597 7.5338L30.597 7.53376L30.5915 7.5317L22.2748 4.41503L22.2748 4.41495L22.2658 4.41174C21.6276 4.18651 20.7995 4.08314 20.0001 4.08532C19.2014 4.0875 18.3745 4.19514 17.7412 4.43145Z" fill="#FAFAFA" stroke="#FAFAFA"/>
<path d="M17.4135 21.0536L17.7671 21.4071L18.1206 21.0536L24.4039 14.7703C24.692 14.4822 25.1754 14.4822 25.4635 14.7703C25.7516 15.0583 25.7516 15.5417 25.4635 15.8298L18.2968 22.9965C18.1455 23.1478 17.9583 23.2167 17.7671 23.2167C17.5758 23.2167 17.3886 23.1478 17.2373 22.9965L14.5539 20.3131C14.2659 20.0251 14.2659 19.5417 14.5539 19.2536C14.842 18.9655 15.3254 18.9655 15.6135 19.2536L17.4135 21.0536Z" fill="#FAFAFA" stroke="#FAFAFA"/>
</svg>
