<svg width="40" height="40" viewBox="0 0 40 40" fill="none" xmlns="http://www.w3.org/2000/svg">
<circle cx="19.7517" cy="19.9565" r="19.3103" fill="white"/>
<path d="M30.2662 18.7773C30.8046 19.4816 30.8046 20.4324 30.2662 21.1355C28.5703 23.3493 24.5015 27.9077 19.7512 27.9077C15.0009 27.9077 10.9321 23.3493 9.23619 21.1355C8.97423 20.7983 8.83203 20.3834 8.83203 19.9564C8.83203 19.5294 8.97423 19.1146 9.23619 18.7773C10.9321 16.5635 15.0009 12.0051 19.7512 12.0051C24.5015 12.0051 28.5703 16.5635 30.2662 18.7773V18.7773Z" stroke="black" stroke-width="1.70385" stroke-linecap="round" stroke-linejoin="round"/>
<path d="M19.7514 23.3642C21.6335 23.3642 23.1591 21.8385 23.1591 19.9565C23.1591 18.0745 21.6335 16.5488 19.7514 16.5488C17.8694 16.5488 16.3438 18.0745 16.3438 19.9565C16.3438 21.8385 17.8694 23.3642 19.7514 23.3642Z" stroke="black" stroke-width="1.70385" stroke-linecap="round" stroke-linejoin="round"/>
</svg>
